HIERARCHY
ROOT ui
{
	 OFFSET 0 0 0
	 CHANNELS 3 XPosition YPosition Z Position
	 EndSite
	 {
	 OFFSET 0 -1 0
	 }
}
ROOT li
{
	 OFFSET 0 0 0
	 CHANNELS 3 XPosition YPosition Z Position
	 EndSite
	 {
	 OFFSET 0 -1 0
	 }
}
ROOT ul
{
	 OFFSET 0 0 0
	 CHANNELS 3 XPosition YPosition Z Position
	 EndSite
	 {
	 OFFSET 0 -1 0
	 }
}
ROOT ll
{
	 OFFSET 0 0 0
	 CHANNELS 3 XPosition YPosition Z Position
	 EndSite
	 {
	 OFFSET 0 -1 0
	 }
}
ROOT tt
{
	 OFFSET 0 0 0
	 CHANNELS 3 XPosition YPosition Z Position
	 EndSite
	 {
	 OFFSET 0 -1 0
	 }
}
ROOT tb
{
	 OFFSET 0 0 0
	 CHANNELS 3 XPosition YPosition Z Position
	 EndSite
	 {
	 OFFSET 0 -1 0
	 }
}
ROOT td
{
	 OFFSET 0 0 0
	 CHANNELS 3 XPosition YPosition Z Position
	 EndSite
	 {
	 OFFSET 0 -1 0
	 }
}
ROOT v
{
	 OFFSET 0 0 0
	 CHANNELS 3 XPosition YPosition Z Position
	 EndSite
	 {
	 OFFSET 0 -1 0
	 }
}
ROOT bn
{
	 OFFSET 0 0 0
	 CHANNELS 3 XPosition YPosition Z Position
	 EndSite
	 {
	 OFFSET 0 -1 0
	 }
}
MOTION
Frames: 19
Frame Time: 0.002
-0.01631581115722656	0.0015284169912338256	0		0.556076171875	-2.52576953125	0		-1.0954134521484375	0.0674783706665039	0		-0.6982276611328125	-2.98113330078125	0		2.047414794921875	-1.242025390625	0		3.66148974609375	-0.549281005859375	0		4.88049072265625	-0.43140478515625	0		5.9676923828125	0.4646365966796875	0		-0.06362148666381837	5.9059990234375	0		
-0.022637332916259766	-0.0054182448387145995	0		0.5249754638671875	-2.53028369140625	0		-1.103755126953125	0.059483455657958983	0		-0.6612717895507813	-2.984802490234375	0		2.066869384765625	-1.2692236328125	0		3.64217919921875	-0.5577528686523437	0		4.88441845703125	-0.4241480712890625	0		5.9684453125	0.4650212707519531	0		-0.21079914855957033	5.87323974609375	0		
-0.014701836585998536	0.001413728952407837	0		0.5399252319335938	-2.534518798828125	0		-1.141927734375	0.059951961517333986	0		-0.712125	-2.97810009765625	0		2.0741669921875	-1.3092318115234376	0		3.66470263671875	-0.5798804321289063	0		4.90008837890625	-0.43607632446289063	0		5.97409765625	0.4563280944824219	0		-0.22735649108886719	5.876431640625	0		
-0.009799518585205079	0.004291721820831299	0		0.5440428466796875	-2.529585205078125	0		-1.0942979736328124	0.04508447265625	0		-0.6269539184570313	-2.972511474609375	0		2.07894775390625	-1.320200439453125	0		3.67370849609375	-0.5727975463867188	0		4.90816162109375	-0.42388885498046874	0		5.97904443359375	0.46464053344726564	0		-0.1928380889892578	5.88182958984375	0		
0.06805350494384765	0.00204278302192688	0		0.5420234375	-2.534561767578125	0		-1.04244482421875	0.04315924835205078	0		-0.6557229614257812	-2.96315673828125	0		2.12042138671875	-1.3527427978515625	0		3.661320556640625	-0.5923961791992187	0		4.90834716796875	-0.4055893249511719	0		5.97576611328125	0.4570653076171875	0		-0.061038551330566404	5.902732421875	0		
-0.012078337669372559	0.001223412036895752	0		0.5561163940429688	-2.532791015625	0		-1.058786376953125	0.028283241271972657	0		-0.6593836059570313	-2.94719384765625	0		2.115036376953125	-1.3765689697265624	0		3.653297607421875	-0.5890734252929688	0		4.905126953125	-0.4142560729980469	0		5.967640625	0.4585475158691406	0		-0.20705955505371093	5.8709052734375	0		
-0.014252559661865234	-0.0028051719665527345	0		0.5380505981445313	-2.540537109375	0		-1.0541617431640624	0.01107999038696289	0		-0.68406982421875	-2.931916015625	0		2.13766015625	-1.39983642578125	0		3.69977490234375	-0.61860498046875	0		4.90604052734375	-0.41400555419921875	0		5.96535986328125	0.44991522216796875	0		-0.19237980651855469	5.88260205078125	0		
-0.013384913444519043	-0.0028897440433502198	0		0.5660298461914063	-2.5439970703125	0		-1.0664608154296875	1.2872399389743806E-4	0		-0.6569288940429687	-2.926439208984375	0		2.123298583984375	-1.420554443359375	0		3.67998828125	-0.5981377563476562	0		4.90826904296875	-0.3917969970703125	0		5.9703203125	0.45814669799804686	0		-0.22400201416015625	5.874994140625	0		
-0.005445488929748535	0.003907232046127319	0		0.5441258544921875	-2.536710693359375	0		-1.13481591796875	-0.011984009742736817	0		-0.6504949340820313	-2.898653076171875	0		2.159910888671875	-1.44106494140625	0		3.686448486328125	-0.6250991821289062	0		4.9163076171875	-0.3797040710449219	0		5.97112646484375	0.4584110412597656	0		-0.18945011901855469	5.879369140625	0		
-0.004656764984130859	0.0037978999614715577	0		0.5689833984375	-2.54214990234375	0		-1.0692147216796875	-0.02513835906982422	0		-0.6461763305664062	-2.87484765625	0		2.141649658203125	-1.44976123046875	0		3.7053017578125	-0.6232667236328125	0		4.92402685546875	-0.3856335144042969	0		5.975767578125	0.450588134765625	0		-0.18900143432617186	5.87924951171875	0		
-0.011027080535888672	-0.0032212889194488527	0		0.5418793334960937	-2.54082177734375	0		-1.077583251953125	-0.032187519073486326	0		-0.64393408203125	-2.85202685546875	0		2.200068115234375	-1.476634521484375	0		3.702996337890625	-0.6281370849609375	0		4.91201025390625	-0.3702869873046875	0		5.9805966796875	0.45873916625976563	0		-0.07043158721923828	5.889337890625	0		
-0.014399258613586426	-0.006305130004882813	0		0.56761572265625	-2.54630908203125	0		-1.087207763671875	-0.05223915481567383	0		-0.699751708984375	-2.82835498046875	0		2.18858447265625	-1.4924735107421876	0		3.684795654296875	-0.6217897338867188	0		4.912703125	-0.37015606689453123	0		5.97712353515625	0.4509906005859375	0		-0.20340309143066407	5.869185546875	0		
-0.009749831199645996	-0.0035300669670104983	0		0.5434407958984375	-2.541068603515625	0		-1.0887789306640625	-0.0644330825805664	0		-0.681721435546875	-2.81081396484375	0		2.180080078125	-1.5053790283203126	0		3.694120849609375	-0.6428789672851563	0		4.921521484375	-0.357165283203125	0		5.97382275390625	0.4592207641601562	0		-0.21911105346679688	5.87024853515625	0		
-0.0021113810539245604	0.0031786270141601564	0		0.5840128173828125	-2.5488173828125	0		-1.0882403564453125	-0.06468136596679687	0		-0.6586710815429687	-2.78736865234375	0		2.182492919921875	-1.51946826171875	0		3.71398779296875	-0.623137939453125	0		4.92340380859375	-0.3350865478515625	0		5.98233056640625	0.45925814819335936	0		-0.18484181213378906	5.87454443359375	0		
-0.0016466619968414306	0.002970124006271362	0		0.5727197875976563	-2.54281396484375	0		-1.0968741455078126	-0.07182057952880859	0		-0.6424937744140625	-2.750842529296875	0		2.2488486328125	-1.5335223388671875	0		3.69435888671875	-0.6318277587890625	0		4.923888671875	-0.3350014038085937	0		5.97476904296875	0.45952487182617185	0		-0.06654755401611329	5.885576171875	0		
-0.005294816017150879	-2.0235100388526917E-4	0		0.5722467651367188	-2.544994384765625	0		-1.116737060546875	-0.08982463836669922	0		-0.6785811767578125	-2.72757177734375	0		2.202154541015625	-1.545917724609375	0		3.695750244140625	-0.6348406982421875	0		4.913572265625	-0.3167621154785156	0		5.96590087890625	0.44380471801757815	0		-0.1998478240966797	5.8643037109375	0		
-0.004966227054595948	-4.5890900492668153E-4	0		0.5727470092773438	-2.5452119140625	0		-1.049527099609375	-0.099138671875	0		-0.629927001953125	-2.7185791015625	0		2.231408203125	-1.55844970703125	0		3.69612158203125	-0.6348475341796875	0		4.89602685546875	-0.30942333984375	0		5.9623173828125	0.45200888061523437	0		-0.0665916748046875	5.88507958984375	0		
-0.011803409576416016	-0.007638312816619873	0		0.5462420654296875	-2.54205859375	0		-1.1164383544921874	-0.11151670074462891	0		-0.7349728393554688	-2.6843623046875	0		2.245550048828125	-1.5747730712890624	0		3.69152001953125	-0.6287899169921874	0		4.90040087890625	-0.30341036987304687	0		5.9676650390625	0.46008416748046876	0		-0.23414411926269532	5.859234375	0		
-4.542219936847687E-4	0.0018912349939346313	0		0.5486722412109375	-2.540354248046875	0		-1.1162252197265625	-0.11191183471679687	0		-0.6583215942382813	-2.668833740234375	0		2.240789794921875	-1.5808345947265625	0		3.68772998046875	-0.6317543334960938	0		4.8898916015625	-0.2851817016601563	0		5.9758330078125	0.460121337890625	0		-0.20032427978515624	5.8634130859375	0		
